<svg width="8" height="5" viewBox="0 0 8 5" fill="none" xmlns="http://www.w3.org/2000/svg">
<path d="M3.5625 4.65625H3.53906C3.58594 4.70312 3.65625 4.72656 3.75 4.72656C3.82031 4.72656 3.89062 4.70312 3.96094 4.65625L7.42969 1.21094C7.47656 1.16406 7.5 1.09375 7.5 1.02344C7.5 0.953125 7.47656 0.882812 7.42969 0.8125L6.96094 0.34375C6.89062 0.296875 6.82031 0.273438 6.75 0.273438C6.65625 0.273438 6.60938 0.296875 6.5625 0.34375L3.75 3.13281L0.9375 0.34375C0.890625 0.296875 0.820312 0.273438 0.75 0.273438C0.65625 0.273438 0.585938 0.296875 0.539062 0.34375L0.0703125 0.8125C0.0234375 0.882812 0 0.953125 0 1.02344C0 1.09375 0.0234375 1.16406 0.09375 1.21094L3.5625 4.65625Z" fill="#2F75CB"/>
</svg>
