<svg width="11" height="15" viewBox="0 0 11 15" fill="none" xmlns="http://www.w3.org/2000/svg">
<path d="M5.90625 1.40625C5.90625 1.95312 6.09766 2.5 6.48047 3.01953C6.69922 3.34766 7.10938 3.78516 7.76562 4.35938C8.33984 4.90625 8.77734 5.34375 9.05078 5.64453C9.48828 6.19141 9.84375 6.71094 10.0898 7.25781C10.3633 7.96875 10.5 8.70703 10.5 9.5C10.5 10.457 10.2539 11.332 9.78906 12.125C9.29688 12.9453 8.66797 13.5742 7.875 14.0391C7.05469 14.5312 6.17969 14.75 5.25 14.75C4.29297 14.75 3.41797 14.5312 2.625 14.0391C1.80469 13.5742 1.17578 12.9453 0.710938 12.125C0.21875 11.332 0 10.457 0 9.5C0 8.65234 0.191406 7.83203 0.601562 7.06641C0.984375 6.30078 1.53125 5.67188 2.24219 5.17969C2.46094 5.04297 2.67969 5.04297 2.92578 5.15234C3.14453 5.28906 3.28125 5.48047 3.28125 5.72656V8.625C3.28125 8.95312 3.36328 9.19922 3.58203 9.41797C3.80078 9.63672 4.04688 9.71875 4.375 9.71875C4.67578 9.71875 4.92188 9.63672 5.14062 9.41797C5.35938 9.19922 5.46875 8.95312 5.46875 8.625C5.46875 8.46094 5.38672 8.24219 5.27734 7.99609C5.19531 7.83203 5.05859 7.58594 4.86719 7.23047C4.45703 6.57422 4.18359 6.05469 4.01953 5.67188C3.74609 4.98828 3.66406 4.30469 3.71875 3.62109C3.80078 2.80078 4.12891 1.92578 4.70312 1.05078C4.8125 0.886719 4.94922 0.777344 5.14062 0.75C5.33203 0.75 5.49609 0.804688 5.66016 0.914062C5.82422 1.05078 5.90625 1.21484 5.90625 1.40625ZM5.25 13.4375C5.96094 13.4375 6.61719 13.2734 7.21875 12.918C7.82031 12.5625 8.28516 12.0703 8.64062 11.4688C8.99609 10.8672 9.1875 10.2109 9.1875 9.5C9.1875 8.89844 9.07812 8.32422 8.85938 7.77734C8.64062 7.33984 8.36719 6.90234 8.01172 6.46484C7.79297 6.19141 7.41016 5.83594 6.91797 5.34375C6.42578 4.85156 6.07031 4.46875 5.85156 4.19531C5.46875 3.78516 5.19531 3.375 5.03125 2.9375C4.86719 3.56641 4.89453 4.19531 5.11328 4.85156C5.22266 5.23438 5.49609 5.78125 5.93359 6.49219C6.20703 6.98438 6.39844 7.33984 6.50781 7.55859C6.67188 7.94141 6.78125 8.29688 6.78125 8.625C6.78125 9.28125 6.53516 9.85547 6.07031 10.3203C5.57812 10.8125 5.03125 11.0312 4.375 11.0312C3.71875 11.0312 3.14453 10.8125 2.67969 10.3203C2.1875 9.85547 1.96875 9.28125 1.96875 8.625V7.09375C1.75 7.42188 1.58594 7.80469 1.47656 8.24219C1.36719 8.67969 1.3125 9.11719 1.3125 9.5C1.3125 10.2109 1.47656 10.8672 1.83203 11.4688C2.1875 12.0703 2.67969 12.5625 3.28125 12.918C3.88281 13.2734 4.53906 13.4375 5.25 13.4375Z" fill="#2F75CB"/>
</svg>
