<svg width="153" height="160" viewBox="0 0 153 160" fill="none" xmlns="http://www.w3.org/2000/svg">
<path opacity="0.130661" fill-rule="evenodd" clip-rule="evenodd" d="M80.0422 1.90055C81.2582 1.21809 82.7418 1.21809 83.9577 1.90055L150.958 39.5047C152.219 40.2126 153 41.5464 153 42.9928V118.007C153 119.454 152.219 120.787 150.958 121.495L83.9577 159.099C82.7418 159.782 81.2582 159.782 80.0422 159.099L13.0422 121.495C11.7809 120.787 11 119.454 11 118.007V42.9928C11 41.5464 11.7809 40.2126 13.0422 39.5047L80.0422 1.90055Z" fill="#D5E3F5"/>
<path opacity="0.168535" fill-rule="evenodd" clip-rule="evenodd" d="M79.7611 16.6347C80.9804 15.9473 82.4704 15.9473 83.6897 16.6347L138.964 47.7952C140.222 48.5042 141 49.8359 141 51.2796V113.437C141 114.88 140.222 116.212 138.964 116.921L83.6897 148.082C82.4704 148.769 80.9804 148.769 79.7611 148.082L24.4865 116.921C23.2288 116.212 22.4508 114.88 22.4508 113.437V51.2796C22.4508 49.8359 23.2288 48.5042 24.4865 47.7952L79.7611 16.6347Z" fill="#D5E3F5"/>
<path d="M82.9832 30.6517L126.983 55.4933C127.611 55.8479 128 56.5134 128 57.2349V106.764C128 107.486 127.611 108.151 126.983 108.506L82.9832 133.348C82.373 133.692 81.6269 133.692 81.0167 133.348L37.0167 108.506C36.3885 108.151 36 107.486 36 106.764V57.2349C36 56.5134 36.3885 55.8479 37.0167 55.4933L81.0167 30.6517C81.6269 30.3071 82.373 30.3071 82.9832 30.6517Z" fill="white" stroke="#D5E3F5" stroke-width="4"/>
</svg>
