<?xml version="1.0" encoding="utf-8"?><svg xmlns="http://www.w3.org/2000/svg" xmlns:xlink="http://www.w3.org/1999/xlink"><symbol viewBox="0 0 344.96 344.96" id="check" xmlns="http://www.w3.org/2000/svg"><g data-name="Слой 2"><path d="M321.85 86.24l-40-23.11-23.1-40H212.5L172.48 0l-40 23.11H86.24l-23.11 40-40 23.1v46.21L0 172.48l23.11 40v46.21l40 23.11 23.11 40h46.21l40 23.1 40-23.11h46.21l23.11-40 40-23.11V212.5l23.11-40-23.11-40V86.24zM156.91 243.07a16.79 16.79 0 01-23.34 0l-50.45-50.44a16.19 16.19 0 010-22.89l13.35-13.35a16.19 16.19 0 0122.89 0l25.87 25.87 80.34-80.35a16.19 16.19 0 0122.89 0l13.35 13.35a16.19 16.19 0 010 22.89z" data-name="Capa 1"/></g></symbol><symbol viewBox="0 0 12 12" id="clock" xmlns="http://www.w3.org/2000/svg"><path d="M7 3.25v3.5a.243.243 0 01-.07.18.243.243 0 01-.18.07h-2.5a.243.243 0 01-.18-.07.243.243 0 01-.07-.18v-.5c0-.073.023-.133.07-.18A.243.243 0 014.25 6H6V3.25c0-.073.023-.133.07-.18A.243.243 0 016.25 3h.5c.073 0 .133.023.18.07.047.047.07.107.07.18zm2.68 4.883c.38-.651.57-1.362.57-2.133 0-.77-.19-1.482-.57-2.133A4.237 4.237 0 008.133 2.32 4.154 4.154 0 006 1.75c-.77 0-1.482.19-2.133.57A4.237 4.237 0 002.32 3.867 4.154 4.154 0 001.75 6c0 .77.19 1.482.57 2.133A4.25 4.25 0 003.867 9.68c.651.38 1.362.57 2.133.57.77 0 1.482-.19 2.133-.57A4.237 4.237 0 009.68 8.133zm1.515-5.14C11.732 3.908 12 4.91 12 6a5.972 5.972 0 01-2.992 5.195A5.848 5.848 0 016 12a5.89 5.89 0 01-3.016-.805 5.991 5.991 0 01-2.18-2.18A5.89 5.89 0 010 6c0-1.089.268-2.091.805-3.008A5.973 5.973 0 016 0c1.089 0 2.091.268 3.008.805a5.954 5.954 0 012.187 2.187z"/></symbol><symbol viewBox="0 0 576 512" id="code" xmlns="http://www.w3.org/2000/svg"><path d="M234.8 511.7L196 500.4c-4.2-1.2-6.7-5.7-5.5-9.9L331.3 5.8c1.2-4.2 5.7-6.7 9.9-5.5L380 11.6c4.2 1.2 6.7 5.7 5.5 9.9L244.7 506.2c-1.2 4.3-5.6 6.7-9.9 5.5zm-83.2-121.1l27.2-29c3.1-3.3 2.8-8.5-.5-11.5L72.2 256l106.1-94.1c3.4-3 3.6-8.2.5-11.5l-27.2-29c-3-3.2-8.1-3.4-11.3-.4L2.5 250.2c-3.4 3.2-3.4 8.5 0 11.7L140.3 391c3.2 3 8.2 2.8 11.3-.4zm284.1.4l137.7-129.1c3.4-3.2 3.4-8.5 0-11.7L435.7 121c-3.2-3-8.3-2.9-11.3.4l-27.2 29c-3.1 3.3-2.8 8.5.5 11.5L503.8 256l-106.1 94.1c-3.4 3-3.6 8.2-.5 11.5l27.2 29c3.1 3.2 8.1 3.4 11.3.4z"/></symbol><symbol viewBox="0 0 512 512" id="crosshairs" xmlns="http://www.w3.org/2000/svg"><path d="M500 224h-30.364C455.724 130.325 381.675 56.276 288 42.364V12c0-6.627-5.373-12-12-12h-40c-6.627 0-12 5.373-12 12v30.364C130.325 56.276 56.276 130.325 42.364 224H12c-6.627 0-12 5.373-12 12v40c0 6.627 5.373 12 12 12h30.364C56.276 381.675 130.325 455.724 224 469.636V500c0 6.627 5.373 12 12 12h40c6.627 0 12-5.373 12-12v-30.364C381.675 455.724 455.724 381.675 469.636 288H500c6.627 0 12-5.373 12-12v-40c0-6.627-5.373-12-12-12zM288 404.634V364c0-6.627-5.373-12-12-12h-40c-6.627 0-12 5.373-12 12v40.634C165.826 392.232 119.783 346.243 107.366 288H148c6.627 0 12-5.373 12-12v-40c0-6.627-5.373-12-12-12h-40.634C119.768 165.826 165.757 119.783 224 107.366V148c0 6.627 5.373 12 12 12h40c6.627 0 12-5.373 12-12v-40.634C346.174 119.768 392.217 165.757 404.634 224H364c-6.627 0-12 5.373-12 12v40c0 6.627 5.373 12 12 12h40.634C392.232 346.174 346.243 392.217 288 404.634zM288 256c0 17.673-14.327 32-32 32s-32-14.327-32-32c0-17.673 14.327-32 32-32s32 14.327 32 32z"/></symbol><symbol viewBox="0 0 512 512" id="envelope" xmlns="http://www.w3.org/2000/svg"><path d="M464 64H48C21.5 64 0 85.5 0 112v288c0 26.5 21.5 48 48 48h416c26.5 0 48-21.5 48-48V112c0-26.5-21.5-48-48-48zM48 96h416c8.8 0 16 7.2 16 16v41.4c-21.9 18.5-53.2 44-150.6 121.3-16.9 13.4-50.2 45.7-73.4 45.3-23.2.4-56.6-31.9-73.4-45.3C85.2 197.4 53.9 171.9 32 153.4V112c0-8.8 7.2-16 16-16zm416 320H48c-8.8 0-16-7.2-16-16V195c22.8 18.7 58.8 47.6 130.7 104.7 20.5 16.4 56.7 52.5 93.3 52.3 36.4.3 72.3-35.5 93.3-52.3 71.9-57.1 107.9-86 130.7-104.7v205c0 8.8-7.2 16-16 16z"/></symbol><symbol viewBox="0 0 14 9" id="eye" xmlns="http://www.w3.org/2000/svg"><path d="M13 4.5c-.792-1.23-1.784-2.148-2.977-2.758.318.542.477 1.128.477 1.758 0 .964-.344 1.79-1.031 2.477A3.364 3.364 0 017 7a3.39 3.39 0 01-2.477-1.023A3.39 3.39 0 013.5 3.5c0-.63.159-1.216.477-1.758C2.784 2.352 1.792 3.271 1 4.5a8.117 8.117 0 002.602 2.555C4.648 7.685 5.782 8 7 8a6.432 6.432 0 003.39-.945A8.089 8.089 0 0013 4.5zM7.266 1.766a.362.362 0 00.109-.266.362.362 0 00-.11-.266A.362.362 0 007 1.125c-.651 0-1.21.234-1.68.703A2.28 2.28 0 004.625 3.5a.36.36 0 00.11.266c.072.073.16.109.265.109a.362.362 0 00.266-.11.362.362 0 00.109-.265c0-.448.159-.83.477-1.148.317-.318.7-.477 1.148-.477a.362.362 0 00.266-.11zm6.578 2.195c.104.182.156.362.156.539 0 .177-.052.357-.156.54a8.31 8.31 0 01-2.946 2.882C9.67 8.64 8.37 9 7 9s-2.672-.362-3.906-1.086A8.353 8.353 0 01.156 5.04 1.081 1.081 0 010 4.5c0-.177.052-.357.156-.54a8.353 8.353 0 012.938-2.874C4.328.362 5.63 0 7 0s2.67.362 3.898 1.086a8.333 8.333 0 012.946 2.875z"/></symbol><symbol viewBox="0 0 384 512" id="file-alt" xmlns="http://www.w3.org/2000/svg"><path d="M369.9 97.9L286 14C277 5 264.8-.1 252.1-.1H48C21.5 0 0 21.5 0 48v416c0 26.5 21.5 48 48 48h288c26.5 0 48-21.5 48-48V131.9c0-12.7-5.1-25-14.1-34zm-22.6 22.7c2.1 2.1 3.5 4.6 4.2 7.4H256V32.5c2.8.7 5.3 2.1 7.4 4.2l83.9 83.9zM336 480H48c-8.8 0-16-7.2-16-16V48c0-8.8 7.2-16 16-16h176v104c0 13.3 10.7 24 24 24h104v304c0 8.8-7.2 16-16 16zm-48-244v8c0 6.6-5.4 12-12 12H108c-6.6 0-12-5.4-12-12v-8c0-6.6 5.4-12 12-12h168c6.6 0 12 5.4 12 12zm0 64v8c0 6.6-5.4 12-12 12H108c-6.6 0-12-5.4-12-12v-8c0-6.6 5.4-12 12-12h168c6.6 0 12 5.4 12 12zm0 64v8c0 6.6-5.4 12-12 12H108c-6.6 0-12-5.4-12-12v-8c0-6.6 5.4-12 12-12h168c6.6 0 12 5.4 12 12z"/></symbol><symbol viewBox="0 0 11 15" id="flame" xmlns="http://www.w3.org/2000/svg"><path d="M5.906 1.406c0 .547.192 1.094.574 1.614.22.328.63.765 1.286 1.34.574.546 1.011.984 1.285 1.285.437.546.793 1.066 1.039 1.613.273.71.41 1.449.41 2.242 0 .957-.246 1.832-.71 2.625a5.35 5.35 0 01-1.915 1.914 4.99 4.99 0 01-2.625.711c-.957 0-1.832-.219-2.625-.71a4.953 4.953 0 01-1.914-1.915C.219 11.332 0 10.457 0 9.5c0-.848.191-1.668.602-2.434a4.96 4.96 0 011.64-1.886c.219-.137.438-.137.684-.028.219.137.355.328.355.575v2.898c0 .328.082.574.301.793.219.219.465.3.793.3.3 0 .547-.081.766-.3.218-.219.328-.465.328-.793 0-.164-.082-.383-.192-.629-.082-.164-.218-.41-.41-.766-.41-.656-.683-1.175-.847-1.558a4.47 4.47 0 01-.301-2.05c.082-.821.41-1.696.984-2.571.11-.164.246-.274.438-.301a.9.9 0 01.52.164c.163.137.245.3.245.492zM5.25 13.437c.71 0 1.367-.164 1.969-.519a4.014 4.014 0 001.422-1.45A3.813 3.813 0 009.187 9.5c0-.602-.109-1.176-.328-1.723a7.098 7.098 0 00-.847-1.312c-.219-.274-.602-.63-1.094-1.121-.492-.492-.848-.875-1.066-1.149-.383-.41-.657-.82-.82-1.258-.165.63-.137 1.258.081 1.915.11.382.383.93.82 1.64.274.492.465.848.575 1.067.164.382.273.738.273 1.066 0 .656-.246 1.23-.71 1.695-.493.492-1.04.711-1.696.711-.656 0-1.23-.219-1.695-.71-.493-.466-.711-1.04-.711-1.696V7.094c-.219.328-.383.71-.492 1.148A5.3 5.3 0 001.312 9.5c0 .71.165 1.367.52 1.969a4.09 4.09 0 001.45 1.449c.6.355 1.257.52 1.968.52z"/></symbol><symbol viewBox="0 0 512 512" id="paint-brush" xmlns="http://www.w3.org/2000/svg"><path d="M455.59 0c-15.81 0-30.62 6.99-41.93 17.15C195.73 211.82 169.77 216.5 179.98 281.99c-41.52 4.96-78.59 24.05-100.32 81.32-2.68 7.08-9.12 11.38-16.64 11.38-12.67 0-51.85-31.56-63.02-39.19C0 429.45 43.26 512 146 512c117.18 0 152.72-87.75 145.06-145.89 56.9-7.01 97.15-62.51 206.45-266.49C505.2 84.65 512 68.48 512 51.66 512 21.52 484.89 0 455.59 0zM222.08 432.89c-16.24 18.52-41.84 27.91-76.08 27.91-35.97 0-58.6-14.93-72.68-35.65 24.56-3.6 45.23-19.96 54.21-43.67 13.79-36.33 32.61-45.55 58.52-48.65l16.43-1.96 36.06 28.51 1.77 13.41c2.07 15.77-1.46 40.97-18.23 60.1zm62.72-117.6l-16.87 2.08L233 289.75l-2.44-15.64C224.3 233.92 444.24 44.8 456.12 54.57c12.12 9.98-121.27 254.56-171.32 260.72z"/></symbol><symbol viewBox="0 0 512 512" id="pencil-alt" xmlns="http://www.w3.org/2000/svg"><path d="M491.609 73.625l-53.861-53.839c-26.378-26.379-69.075-26.383-95.46-.001L24.91 335.089.329 484.085c-2.675 16.215 11.368 30.261 27.587 27.587l148.995-24.582 315.326-317.378c26.33-26.331 26.581-68.879-.628-96.087zM200.443 311.557C204.739 315.853 210.37 318 216 318s11.261-2.147 15.557-6.443l119.029-119.03 28.569 28.569L210 391.355V350h-48v-48h-41.356l170.259-169.155 28.569 28.569-119.03 119.029c-8.589 8.592-8.589 22.522.001 31.114zM82.132 458.132l-28.263-28.263 12.14-73.587L84.409 338H126v48h48v41.59l-18.282 18.401-73.586 12.141zm378.985-319.533l-.051.051-.051.051-48.03 48.344-88.03-88.03 48.344-48.03.05-.05.05-.05c9.147-9.146 23.978-9.259 33.236-.001l53.854 53.854c9.878 9.877 9.939 24.549.628 33.861z"/></symbol><symbol viewBox="0 0 512 512" id="search" xmlns="http://www.w3.org/2000/svg"><path d="M508.5 468.9L387.1 347.5c-2.3-2.3-5.3-3.5-8.5-3.5h-13.2c31.5-36.5 50.6-84 50.6-136C416 93.1 322.9 0 208 0S0 93.1 0 208s93.1 208 208 208c52 0 99.5-19.1 136-50.6v13.2c0 3.2 1.3 6.2 3.5 8.5l121.4 121.4c4.7 4.7 12.3 4.7 17 0l22.6-22.6c4.7-4.7 4.7-12.3 0-17zM208 368c-88.4 0-160-71.6-160-160S119.6 48 208 48s160 71.6 160 160-71.6 160-160 160z"/></symbol><symbol viewBox="0 0 640 512" id="sitemap" xmlns="http://www.w3.org/2000/svg"><path d="M104 272h192v48h48v-48h192v48h48v-57.59c0-21.17-17.22-38.41-38.41-38.41H344v-64h40c17.67 0 32-14.33 32-32V32c0-17.67-14.33-32-32-32H256c-17.67 0-32 14.33-32 32v96c0 8.84 3.58 16.84 9.37 22.63S247.16 160 256 160h40v64H94.41C73.22 224 56 241.23 56 262.41V320h48v-48zm168-160V48h96v64h-96zm336 240h-96c-17.67 0-32 14.33-32 32v96c0 17.67 14.33 32 32 32h96c17.67 0 32-14.33 32-32v-96c0-17.67-14.33-32-32-32zm-16 112h-64v-64h64v64zM368 352h-96c-17.67 0-32 14.33-32 32v96c0 17.67 14.33 32 32 32h96c17.67 0 32-14.33 32-32v-96c0-17.67-14.33-32-32-32zm-16 112h-64v-64h64v64zM128 352H32c-17.67 0-32 14.33-32 32v96c0 17.67 14.33 32 32 32h96c17.67 0 32-14.33 32-32v-96c0-17.67-14.33-32-32-32zm-16 112H48v-64h64v64z"/></symbol><symbol viewBox="0 0 320 512" id="times" xmlns="http://www.w3.org/2000/svg"><path d="M207.6 256l107.72-107.72c6.23-6.23 6.23-16.34 0-22.58l-25.03-25.03c-6.23-6.23-16.34-6.23-22.58 0L160 208.4 52.28 100.68c-6.23-6.23-16.34-6.23-22.58 0L4.68 125.7c-6.23 6.23-6.23 16.34 0 22.58L112.4 256 4.68 363.72c-6.23 6.23-6.23 16.34 0 22.58l25.03 25.03c6.23 6.23 16.34 6.23 22.58 0L160 303.6l107.72 107.72c6.23 6.23 16.34 6.23 22.58 0l25.03-25.03c6.23-6.23 6.23-16.34 0-22.58L207.6 256z"/></symbol><symbol viewBox="0 0 576 512" id="trophy-alt" xmlns="http://www.w3.org/2000/svg"><path d="M359.3 138.9l-43.4-6.3-19.4-39.3c-3.5-7-13.5-7.1-17 0l-19.4 39.3-43.4 6.3c-7.8 1.1-10.9 10.7-5.3 16.2l31.4 30.6-7.4 43.2c-1.3 7.7 6.8 13.7 13.8 10l38.8-20.4 38.8 20.4c6.9 3.6 15.1-2.2 13.8-10l-7.4-43.2 31.4-30.6c5.6-5.5 2.5-15.1-5.3-16.2zM448 64V16c0-8.8-7.2-16-16-16H144c-8.8 0-16 7.2-16 16v48H16C7.2 64 0 71.2 0 80v60.8C0 201.1 68.3 266 159.6 283.4c27.4 57.9 68.1 88.2 104.4 97.4V464h-64c-22.1 0-40 17.9-40 40 0 4.4 3.6 8 8 8h240c4.4 0 8-3.6 8-8 0-22.1-17.9-40-40-40h-64v-83.2c36.3-9.3 77-39.5 104.4-97.4C507.5 266.1 576 201.2 576 140.8V80c0-8.8-7.2-16-16-16H448zM48 140.8V112h80c0 39.2 2.1 76.2 12.3 116.8-55.1-18.9-92.3-58.9-92.3-88zM288 336c-53 0-112-78.4-112-216V48h224v72c0 140.5-60.8 216-112 216zm240-195.2c0 29.1-37.2 69.1-92.3 88C445.9 188.2 448 151.1 448 112h80v28.8z"/></symbol><symbol viewBox="0 0 480 512" id="vial" xmlns="http://www.w3.org/2000/svg"><path d="M477.7 186.1L309.5 18.3c-3.1-3.1-8.2-3.1-11.3 0l-34 33.9c-3.1 3.1-3.1 8.2 0 11.3l11.2 11.1L33 316.5c-38.8 38.7-45.1 102-9.4 143.5 20.6 24 49.5 36 78.4 35.9 26.4 0 52.8-10 72.9-30.1l246.3-245.7 11.2 11.1c3.1 3.1 8.2 3.1 11.3 0l34-33.9c3.1-3 3.1-8.1 0-11.2zM318 256H161l148-147.7 78.5 78.3L318 256z"/></symbol></svg>