<?xml version="1.0" encoding="utf-8"?><svg xmlns="http://www.w3.org/2000/svg" xmlns:xlink="http://www.w3.org/1999/xlink"><symbol viewBox="0 0 344.96 344.96" id="check" xmlns="http://www.w3.org/2000/svg"><g data-name="Слой 2"><path d="M321.85 86.24l-40-23.11-23.1-40H212.5L172.48 0l-40 23.11H86.24l-23.11 40-40 23.1v46.21L0 172.48l23.11 40v46.21l40 23.11 23.11 40h46.21l40 23.1 40-23.11h46.21l23.11-40 40-23.11V212.5l23.11-40-23.11-40V86.24zM156.91 243.07a16.79 16.79 0 01-23.34 0l-50.45-50.44a16.19 16.19 0 010-22.89l13.35-13.35a16.19 16.19 0 0122.89 0l25.87 25.87 80.34-80.35a16.19 16.19 0 0122.89 0l13.35 13.35a16.19 16.19 0 010 22.89z" data-name="Capa 1"/></g></symbol><symbol viewBox="0 0 576 512" id="code" xmlns="http://www.w3.org/2000/svg"><path d="M234.8 511.7L196 500.4c-4.2-1.2-6.7-5.7-5.5-9.9L331.3 5.8c1.2-4.2 5.7-6.7 9.9-5.5L380 11.6c4.2 1.2 6.7 5.7 5.5 9.9L244.7 506.2c-1.2 4.3-5.6 6.7-9.9 5.5zm-83.2-121.1l27.2-29c3.1-3.3 2.8-8.5-.5-11.5L72.2 256l106.1-94.1c3.4-3 3.6-8.2.5-11.5l-27.2-29c-3-3.2-8.1-3.4-11.3-.4L2.5 250.2c-3.4 3.2-3.4 8.5 0 11.7L140.3 391c3.2 3 8.2 2.8 11.3-.4zm284.1.4l137.7-129.1c3.4-3.2 3.4-8.5 0-11.7L435.7 121c-3.2-3-8.3-2.9-11.3.4l-27.2 29c-3.1 3.3-2.8 8.5.5 11.5L503.8 256l-106.1 94.1c-3.4 3-3.6 8.2-.5 11.5l27.2 29c3.1 3.2 8.1 3.4 11.3.4z"/></symbol><symbol viewBox="0 0 512 512" id="crosshairs" xmlns="http://www.w3.org/2000/svg"><path d="M500 224h-30.364C455.724 130.325 381.675 56.276 288 42.364V12c0-6.627-5.373-12-12-12h-40c-6.627 0-12 5.373-12 12v30.364C130.325 56.276 56.276 130.325 42.364 224H12c-6.627 0-12 5.373-12 12v40c0 6.627 5.373 12 12 12h30.364C56.276 381.675 130.325 455.724 224 469.636V500c0 6.627 5.373 12 12 12h40c6.627 0 12-5.373 12-12v-30.364C381.675 455.724 455.724 381.675 469.636 288H500c6.627 0 12-5.373 12-12v-40c0-6.627-5.373-12-12-12zM288 404.634V364c0-6.627-5.373-12-12-12h-40c-6.627 0-12 5.373-12 12v40.634C165.826 392.232 119.783 346.243 107.366 288H148c6.627 0 12-5.373 12-12v-40c0-6.627-5.373-12-12-12h-40.634C119.768 165.826 165.757 119.783 224 107.366V148c0 6.627 5.373 12 12 12h40c6.627 0 12-5.373 12-12v-40.634C346.174 119.768 392.217 165.757 404.634 224H364c-6.627 0-12 5.373-12 12v40c0 6.627 5.373 12 12 12h40.634C392.232 346.174 346.243 392.217 288 404.634zM288 256c0 17.673-14.327 32-32 32s-32-14.327-32-32c0-17.673 14.327-32 32-32s32 14.327 32 32z"/></symbol><symbol viewBox="0 0 512 512" id="envelope" xmlns="http://www.w3.org/2000/svg"><path d="M464 64H48C21.5 64 0 85.5 0 112v288c0 26.5 21.5 48 48 48h416c26.5 0 48-21.5 48-48V112c0-26.5-21.5-48-48-48zM48 96h416c8.8 0 16 7.2 16 16v41.4c-21.9 18.5-53.2 44-150.6 121.3-16.9 13.4-50.2 45.7-73.4 45.3-23.2.4-56.6-31.9-73.4-45.3C85.2 197.4 53.9 171.9 32 153.4V112c0-8.8 7.2-16 16-16zm416 320H48c-8.8 0-16-7.2-16-16V195c22.8 18.7 58.8 47.6 130.7 104.7 20.5 16.4 56.7 52.5 93.3 52.3 36.4.3 72.3-35.5 93.3-52.3 71.9-57.1 107.9-86 130.7-104.7v205c0 8.8-7.2 16-16 16z"/></symbol><symbol viewBox="0 0 384 512" id="file-alt" xmlns="http://www.w3.org/2000/svg"><path d="M369.9 97.9L286 14C277 5 264.8-.1 252.1-.1H48C21.5 0 0 21.5 0 48v416c0 26.5 21.5 48 48 48h288c26.5 0 48-21.5 48-48V131.9c0-12.7-5.1-25-14.1-34zm-22.6 22.7c2.1 2.1 3.5 4.6 4.2 7.4H256V32.5c2.8.7 5.3 2.1 7.4 4.2l83.9 83.9zM336 480H48c-8.8 0-16-7.2-16-16V48c0-8.8 7.2-16 16-16h176v104c0 13.3 10.7 24 24 24h104v304c0 8.8-7.2 16-16 16zm-48-244v8c0 6.6-5.4 12-12 12H108c-6.6 0-12-5.4-12-12v-8c0-6.6 5.4-12 12-12h168c6.6 0 12 5.4 12 12zm0 64v8c0 6.6-5.4 12-12 12H108c-6.6 0-12-5.4-12-12v-8c0-6.6 5.4-12 12-12h168c6.6 0 12 5.4 12 12zm0 64v8c0 6.6-5.4 12-12 12H108c-6.6 0-12-5.4-12-12v-8c0-6.6 5.4-12 12-12h168c6.6 0 12 5.4 12 12z"/></symbol><symbol viewBox="0 0 512 512" id="paint-brush" xmlns="http://www.w3.org/2000/svg"><path d="M455.59 0c-15.81 0-30.62 6.99-41.93 17.15C195.73 211.82 169.77 216.5 179.98 281.99c-41.52 4.96-78.59 24.05-100.32 81.32-2.68 7.08-9.12 11.38-16.64 11.38-12.67 0-51.85-31.56-63.02-39.19C0 429.45 43.26 512 146 512c117.18 0 152.72-87.75 145.06-145.89 56.9-7.01 97.15-62.51 206.45-266.49C505.2 84.65 512 68.48 512 51.66 512 21.52 484.89 0 455.59 0zM222.08 432.89c-16.24 18.52-41.84 27.91-76.08 27.91-35.97 0-58.6-14.93-72.68-35.65 24.56-3.6 45.23-19.96 54.21-43.67 13.79-36.33 32.61-45.55 58.52-48.65l16.43-1.96 36.06 28.51 1.77 13.41c2.07 15.77-1.46 40.97-18.23 60.1zm62.72-117.6l-16.87 2.08L233 289.75l-2.44-15.64C224.3 233.92 444.24 44.8 456.12 54.57c12.12 9.98-121.27 254.56-171.32 260.72z"/></symbol><symbol viewBox="0 0 512 512" id="pencil-alt" xmlns="http://www.w3.org/2000/svg"><path d="M491.609 73.625l-53.861-53.839c-26.378-26.379-69.075-26.383-95.46-.001L24.91 335.089.329 484.085c-2.675 16.215 11.368 30.261 27.587 27.587l148.995-24.582 315.326-317.378c26.33-26.331 26.581-68.879-.628-96.087zM200.443 311.557C204.739 315.853 210.37 318 216 318s11.261-2.147 15.557-6.443l119.029-119.03 28.569 28.569L210 391.355V350h-48v-48h-41.356l170.259-169.155 28.569 28.569-119.03 119.029c-8.589 8.592-8.589 22.522.001 31.114zM82.132 458.132l-28.263-28.263 12.14-73.587L84.409 338H126v48h48v41.59l-18.282 18.401-73.586 12.141zm378.985-319.533l-.051.051-.051.051-48.03 48.344-88.03-88.03 48.344-48.03.05-.05.05-.05c9.147-9.146 23.978-9.259 33.236-.001l53.854 53.854c9.878 9.877 9.939 24.549.628 33.861z"/></symbol><symbol viewBox="0 0 640 512" id="sitemap" xmlns="http://www.w3.org/2000/svg"><path d="M104 272h192v48h48v-48h192v48h48v-57.59c0-21.17-17.22-38.41-38.41-38.41H344v-64h40c17.67 0 32-14.33 32-32V32c0-17.67-14.33-32-32-32H256c-17.67 0-32 14.33-32 32v96c0 8.84 3.58 16.84 9.37 22.63S247.16 160 256 160h40v64H94.41C73.22 224 56 241.23 56 262.41V320h48v-48zm168-160V48h96v64h-96zm336 240h-96c-17.67 0-32 14.33-32 32v96c0 17.67 14.33 32 32 32h96c17.67 0 32-14.33 32-32v-96c0-17.67-14.33-32-32-32zm-16 112h-64v-64h64v64zM368 352h-96c-17.67 0-32 14.33-32 32v96c0 17.67 14.33 32 32 32h96c17.67 0 32-14.33 32-32v-96c0-17.67-14.33-32-32-32zm-16 112h-64v-64h64v64zM128 352H32c-17.67 0-32 14.33-32 32v96c0 17.67 14.33 32 32 32h96c17.67 0 32-14.33 32-32v-96c0-17.67-14.33-32-32-32zm-16 112H48v-64h64v64z"/></symbol><symbol viewBox="0 0 576 512" id="trophy-alt" xmlns="http://www.w3.org/2000/svg"><path d="M359.3 138.9l-43.4-6.3-19.4-39.3c-3.5-7-13.5-7.1-17 0l-19.4 39.3-43.4 6.3c-7.8 1.1-10.9 10.7-5.3 16.2l31.4 30.6-7.4 43.2c-1.3 7.7 6.8 13.7 13.8 10l38.8-20.4 38.8 20.4c6.9 3.6 15.1-2.2 13.8-10l-7.4-43.2 31.4-30.6c5.6-5.5 2.5-15.1-5.3-16.2zM448 64V16c0-8.8-7.2-16-16-16H144c-8.8 0-16 7.2-16 16v48H16C7.2 64 0 71.2 0 80v60.8C0 201.1 68.3 266 159.6 283.4c27.4 57.9 68.1 88.2 104.4 97.4V464h-64c-22.1 0-40 17.9-40 40 0 4.4 3.6 8 8 8h240c4.4 0 8-3.6 8-8 0-22.1-17.9-40-40-40h-64v-83.2c36.3-9.3 77-39.5 104.4-97.4C507.5 266.1 576 201.2 576 140.8V80c0-8.8-7.2-16-16-16H448zM48 140.8V112h80c0 39.2 2.1 76.2 12.3 116.8-55.1-18.9-92.3-58.9-92.3-88zM288 336c-53 0-112-78.4-112-216V48h224v72c0 140.5-60.8 216-112 216zm240-195.2c0 29.1-37.2 69.1-92.3 88C445.9 188.2 448 151.1 448 112h80v28.8z"/></symbol><symbol viewBox="0 0 480 512" id="vial" xmlns="http://www.w3.org/2000/svg"><path d="M477.7 186.1L309.5 18.3c-3.1-3.1-8.2-3.1-11.3 0l-34 33.9c-3.1 3.1-3.1 8.2 0 11.3l11.2 11.1L33 316.5c-38.8 38.7-45.1 102-9.4 143.5 20.6 24 49.5 36 78.4 35.9 26.4 0 52.8-10 72.9-30.1l246.3-245.7 11.2 11.1c3.1 3.1 8.2 3.1 11.3 0l34-33.9c3.1-3 3.1-8.1 0-11.2zM318 256H161l148-147.7 78.5 78.3L318 256z"/></symbol></svg>